<svg xmlns="http://www.w3.org/2000/svg" viewBox="0 0 294 294">
    <defs>
        <style>
            .cls-1,.cls-2{fill:#232323}.cls-2{fill-rule:evenodd}
        </style>
    </defs>
    <g id="Layer_1">
        <path d="M147.65 20.605c-.356-1.225-.858-2.56-2.524-2.548-1.483 0-2.132 1.09-2.132 2.119 0 1.408.931 2.058 2.45 2.842l.062.037c1.494.759 3.27 1.666 3.282 3.785 0 2.021-1.702 3.638-4.263 3.65a6.7 6.7 0 0 1-1.886-.281c-.478-.172-.772-.307-.943-.405-.16-.404-.417-2.058-.527-2.976l.551-.135c.319 1.176 1.189 3.111 3.16 3.111 1.446 0 2.304-.906 2.304-2.315 0-1.421-1.066-2.095-2.511-2.854l-.11-.062c-1.238-.649-3.063-1.617-3.075-3.723 0-1.85 1.47-3.43 3.956-3.443.882 0 1.69.209 2.426.429.073.625.159 1.286.294 2.29l.049.368-.564.123zm-9.972 9.861c.098-.613.281-2.45.318-3.1h-.588c-.159.784-.44 1.47-.722 1.9-.368.55-.882.759-2.328.93-.955.11-1.63.172-2.021-.012-.368-.208-.54-.6-.637-1.495l-.417-3.613 1.813-.208c1.666-.197 1.813-.098 2.218 1.249l.55-.061-.428-3.675-.551.061c-.098 1.31-.172 1.47-1.899 1.678l-1.8.209-.503-4.337c-.074-.576-.037-.612.563-.686l1.446-.171c1.372-.16 1.911-.086 2.217.281.294.392.54.796.796 1.568l.54-.159c-.05-.282-.11-.6-.16-.919-.135-.747-.27-1.482-.306-1.813l-8.526.993.061.539c1.507-.037 1.666 0 1.862 1.714l.882 7.608c.184 1.543.05 1.715-1.678 2.058l.061.539 9.212-1.066z" class="cls-1"/>
        <path d="M115.934 21.438c2.377-.564 4.25-.503 5.672.318 1.127.674 2.107 1.886 2.536 3.65.539 2.242.073 4.116-1.103 5.55-1.14 1.42-2.879 2.327-5.182 2.878l-4.434 1.066-.123-.502c1.58-.502 1.703-.65 1.323-2.242l-1.8-7.497c-.38-1.605-.552-1.641-2.022-1.42l-.134-.54 5.255-1.262zm.27 10.204c.343 1.42 1.04 1.629 2.413 1.298 3.503-.833 4.483-3.846 3.76-6.835-.465-1.924-1.567-3.418-3.282-3.945-.968-.343-2.107-.306-3.37 0-.783.184-1.249.404-1.408.576-.16.171-.16.392 0 1.127l1.862 7.779z" class="cls-2"/>
        <path d="M99.2 28.506c-.281-.809.037-1.225.993-1.715l-.22-.49-4.141 1.862.22.49c1.237-.478 1.764-.441 2.205.306.27.466.71 1.237 1.433 2.854l1.948 4.312-.049.025-11.282-5.5-2.597 1.176.22.49c.858-.307 1.299-.331 1.85-.062.502.282.576.331 1.152 1.617l1.74 3.859c.722 1.617 1.053 2.475 1.249 3.05.294.895-.037 1.323-1.03 1.838l.221.49 4.153-1.874-.22-.49c-1.226.465-1.728.44-2.218-.417-.282-.49-.71-1.298-1.445-2.915l-1.985-4.398h.037l11.613 5.806.539-.245-3.185-7.068c-.735-1.63-1.054-2.438-1.225-2.989z" class="cls-1"/>
        <path d="M87.208 39.04c2.192 3.529 1.078 7.216-1.911 9.078-2.953 1.837-6.738 1.005-8.698-2.12-1.837-2.94-1.482-6.945 1.948-9.077 2.768-1.727 6.615-1.139 8.648 2.132zm-9.212 5.452c1.91 3.063 4.986 4.25 7.288 2.818 1.813-1.127 2.5-3.663.54-6.8-2.144-3.441-5.084-4.152-7.216-2.817-1.825 1.14-2.511 3.749-.612 6.799" class="cls-2"/>
        <path d="m73.194 55.713.33.429 4.03-3.124-.33-.429c-1.323.87-1.495.894-2.511-.416l-4.717-6.089c-1.004-1.286-.955-1.482.233-2.535l-.33-.429-4.03 3.124.33.428c1.323-.87 1.507-.882 2.511.417l4.717 6.088c1.004 1.299.955 1.482-.221 2.536zm-8.857-4.398c-.784-.526-1.237-.76-1.617-.833-.539-.122-.87 0-1.923.98l-.993.931 6.468 6.921c1.042 1.115 1.287 1.152 2.695-.012l.368.392-4.043 3.773-.367-.392c1.2-1.274 1.176-1.531.147-2.633l-6.468-6.922-.87.809c-1.164 1.09-1.347 1.47-1.225 1.96.05.392.306.894.723 1.678l-.404.38a121 121 0 0 0-2.193-2.695l.282-.257c.502.134.71 0 1.102-.368l5.55-5.194c.38-.355.416-.539.391-1.017l.294-.281c.6.649 1.63 1.604 2.463 2.352l-.368.428zm-3.675 16.501c-.257-.674-1.041-1.96-1.543-2.732l-.527.294c.845 1.973.992 3.455-.282 4.95-1.886 2.229-5.133 2.266-7.889-.062-2.23-1.886-3.197-4.949-1.127-7.399 1.335-1.592 2.72-1.935 4.594-1.005l.27-.526a47 47 0 0 0-2.034-1.299l-.441-.281a5 5 0 0 1-.392.294c-.551.404-1.421 1.053-2.205 1.972-2.769 3.283-2.732 7.387.355 9.996 2.34 1.972 6.223 2.511 9.31-1.152.894-1.053 1.642-2.548 1.886-3.038z" class="cls-1"/>
        <path d="m50.176 81.597-.453-.294c.539-1.102.502-1.323-.257-1.531-.576-.16-1.336-.33-2.193-.539l-.87-.208-2.254 3.43.074.098a59 59 0 0 0 1.53 1.972c.785 1.017 1.042.98 1.949-.147l.453.294-2.291 3.491-.453-.294c.527-1.102.576-1.396-.478-2.89l-6.26-8.882.184-.588c1.188.282 2.413.588 3.663.882 2.34.564 4.716 1.152 6.982 1.678 1.715.392 2.01.282 2.781-.698l.453.294-2.584 3.945zm-9.628-4.079-.025.037c.98 1.335 1.972 2.683 2.916 3.956l.183.258 1.948-2.965-5.035-1.274zm4.213 12.948a6 6 0 0 0 .319-.6l-.417-.294c-.294.33-.673.637-1.42.845-.65.196-1.287.331-2.487.515-1.03.134-2.548.281-3.259.294.074-1.556-.38-2.916-1.862-3.65-1.029-.515-2.033-.454-2.83.024-.759.44-1.323 1.213-1.947 2.474l-2.12 4.276.478.245c.784-1.287.907-1.397 2.377-.674l6.933 3.43c1.47.723 1.495.93.894 2.4l.49.246 2.242-4.533-.478-.245c-.784 1.336-.967 1.434-2.437.71l-2.744-1.359.27-.551c.44-.894.795-1.09 1.42-1.14.233-.024.478-.036.735-.06a42 42 0 0 0 2.879-.307c1.507-.22 2.242-.76 2.952-2.021zm-7.986.858c.134.6 0 1.237-.454 2.119l-.404.833-4.238-2.107c-.466-.233-.638-.404-.662-.564-.037-.183.037-.514.294-1.016.65-1.311 1.948-2.193 3.81-1.274.93.465 1.482 1.078 1.666 2.009z" class="cls-2"/>
        <path d="M35.99 101.467c.564.318 2.132 1.298 2.634 1.666l-3.16 8.722-.503-.184c.466-1.69.38-1.886-1.09-2.425l-7.203-2.61c-1.629-.588-1.74-.465-2.376.907l-.503-.184 2.928-8.073c.319.11 1.03.319 1.752.54.306.085.625.183.906.269l-.098.551c-.82-.11-1.286-.073-1.764.012-.477.11-.771.564-1.249 1.862l-.502 1.372c-.209.564-.184.613.367.809l4.104 1.482.612-1.703c.588-1.629.478-1.776-.649-2.45l.196-.526 3.48 1.261-.197.527c-1.384-.233-1.543-.147-2.107 1.421l-.625 1.715 3.418 1.237c.845.307 1.274.343 1.617.098.343-.27.588-.894.919-1.8.502-1.372.539-1.936.208-2.5-.245-.44-.747-1.004-1.384-1.506l.27-.515zm-12.519 11.404c.355-.159.857-.208 1.813-.196l.073-.55c-1.102-.172-2.498-.405-3.356-.613l-.098.392c.282.38.355.563.245 1.066l-1.776 7.386c-.123.527-.22.76-.71.919l-.087.38c1.017.281 2.218.673 3.308 1.029l.135-.54c-.772-.416-1.262-.698-1.52-.992-.367-.343-.428-.759-.06-2.315l.281-1.164 9.212 2.206c1.482.355 1.63.55 1.335 2.278l.527.123 1.286-5.366-.526-.123c-.54 1.752-.76 1.85-2.242 1.507l-9.2-2.205.319-1.323c.343-1.409.539-1.69 1.065-1.886zm-3.736 13.194c-.062 1.078.135 1.568.967 1.74.564.134 1.421.269 3.198.465l7.705.845-.061.588-10.927 7.044v.037l4.802.526c1.764.196 2.682.233 3.246.245.992.012 1.262-.404 1.482-1.69l.54.061-.503 4.532-.539-.06c.061-1.116-.135-1.618-1.054-1.826-.588-.123-1.494-.282-3.258-.478l-4.214-.465c-1.397-.16-1.482-.123-1.972.171-.527.331-.723.735-.895 1.63l-.539-.062.319-2.83 10.486-6.92v-.062l-4.704-.515c-1.764-.196-2.646-.22-3.185-.22-.87 0-1.176.429-1.397 1.74l-.539-.062.503-4.508.539.061zm9.898 22.515h.539l.037-5.096h-.54c-.122 1.568-.22 1.728-1.874 1.715l-7.693-.061c-1.641-.012-1.751-.172-1.85-1.752h-.538l-.037 5.096h.539c.122-1.58.245-1.727 1.874-1.715l7.693.062c1.642.012 1.752.171 1.85 1.751" class="cls-1"/>
        <path d="M221.015 225.767H72.949c-.625 0-1.14-.514-1.14-1.139s.515-1.139 1.14-1.139h55.786c2.818-1.507 4.9-3.087 5.219-4.68.882-4.41 2.646-14.087 0-23.336-2.646-6.921-9.298-11.674-16.966-14.932-2.279.33-5.023 1.274-7.24 3.552 1.948 1.654 3.344 2.511 3.516 2.61 0 0-7.987 5.634-9.837 10.387-1.164-1.506-5.733-6.076-7.546-6.713.845-1.788 5.133-8.207 9.971-10.253.478.76 1.262 1.617 2.132 2.438 1.396-1.311 3.234-2.597 5.574-3.357-8.183-2.94-16.967-4.385-23.128-5.096-.16 2.132-.147 4.52.036 7.607-12.421-2.057-25.235 3.271-25.235 3.271-.122-.637-2.572-13.315.306-20.58 5.354-1.984 19.294.245 26.375 1.764-.576 1.985-.98 3.736-1.237 5.586 6.039-.93 11.551-1.078 16.537-.71-1.874-2.61-5.255-6.1-11.123-8.771a45.2 45.2 0 0 1-12.495-8.502c-2.56 1.078-4.973 2.389-6.431 3.467-1.237-7.57-5.415-18.265-10.621-22.773 0 0 13.095-3.148 18.534-7.252.062.417.11.858.172 1.311.87 6.542 2.376 17.787 6.21 23.104-1.923.036-4.017.575-6.578 1.604 3.492 2.977 7.779 5.623 14.149 7.301-.318-1.445-.625-3.638-.27-6.443-1.004 0-1.482.098-2.547.282-.343-3.112-.699-9.2.392-11.405 3.246-.919 8.587.686 8.856.772 0 0-2.854 5.267-2.511 10.694-1.396-.22-1.458-.208-2.425-.233-.172 3.136.11 5.084.955 6.909 7.656 2.438 11.221 7.264 13.487 10.915 4.398.82 7.681 1.776 11.038 2.977-.062-1.446-.209-3.847-1.262-5.831-.858.232-1.52.539-2.511 1.016-.944-5.353-4.95-9.812-4.95-9.812.282-.16 5.072-2.952 8.429-2.83 1.58 1.899 2.658 7.902 3.05 11-1.188.074-1.311 0-2.401.283 1.262 2.609 1.629 4.814 1.862 6.994 2.376.907 4.471 1.801 6.272 2.573l.735.318c1.629-12.825-4.667-23.3-8.992-28.8-2.94 2.193-5.745 4.545-6.933 5.758-2.315-8.942-15.521-20.727-15.521-20.727.527-.257 11.16-5.806 14.688-10.302 8.269 4.68 14.626 17.125 15.815 20.519-1.446.33-3.908 1.813-6.456 3.613 1.923 1.421 4.238 3.443 6.713 6.285 1.151 1.31 2.168 2.83 3.111 4.495 1.25-1.102 2.94-2.854 4.165-5.132-1.788-.625-3.479-1.14-4.336-1.311 3.748-4.104 5.365-14.651 5.365-14.651.307.183 6.603 3.724 10.033 4.03.355 5.709-3.834 13.022-5.17 14.724-.673-.661-2.4-1.47-4.275-2.205-.698 2.328-2.058 4.9-4.263 7.448 2.083 4.41 3.737 9.506 5.341 14.48.441 1.348.87 2.683 1.311 3.994 15.888-13.243 11.307-37.84 8.024-49.258-2.168 1.421-4.422 3.198-7.277 5.758-6.823-12.3-20.371-19.796-20.371-19.796.465-.551 9.86-11.49 18.203-14.026 5.464 3.307 13.181 17.052 16.77 24.304-2.192.894-4.054 1.788-5.892 2.878 3.871 5.452 6.603 12.275 8.159 19.33 2.082-2.008 4.569-3.858 6.933-5.426-.87-.698-1.654-1.25-2.193-1.433.858-1.789 5.145-8.208 9.984-10.253 1.654 2.682 7.13 6.419 7.4 6.578 0 0-7.988 5.635-9.825 10.388-.637-.809-2.267-2.511-3.908-4.018-3.663 4.459-5.966 10.24-7.056 13.487.416 5.868 0 11.503-1.335 16.207 3.7-2.303 8.795-3.736 14.418-4.508.588-5.39 5.084-9.506 8.942-12.066-1.555-1.9-3.16-3.418-5.17-5.109 5.023-5.218 15.313-14.883 20.875-16.231 6.443 4.41 11.527 16.28 11.772 16.893 0 0-13.597 2.756-22.736 11.417-1.384-2.34-2.585-4.165-3.76-5.721-3.467 4.202-4.533 8.428-4.84 10.302 6.75-.478 13.88-.171 20.127.6.564-3.123.882-6.039.564-7.509 3.577-.38 17.542.147 25.272 5.66-2.585 5.096-3.124 17.076-3.136 17.664 0 0-16.268-6.994-25.333-5.316.575-1.531 1.482-4.863 2.205-8.318-12.838-.233-20.911 1.544-27.306 4.814 4.275.38 7.068.956 8.87 1.52.624-1.348 1.077-2.585 1.114-3.308 1.96.318 9.322 2.646 12.63 6.713-2.12 2.34-4.165 8.636-4.251 8.954 0 0-7.644-6.1-12.716-6.541.613-.858 1.421-2.009 2.414-4.055-3.063-.82-7.522-1.458-11.638-.796-2.364 1.519-4.336 2.695-6.541 4.63-2.695 2.353-4.717 5.476-6.1 8.918 1.04 1.532 1.702 3.724 1.702 6.187 0 3.981-1.703 7.288-3.993 8.134.306 5.512 1.984 10.461 4.9 13.328a13.7 13.7 0 0 0 2.143 1.568h57.134c.625 0 1.14.514 1.14 1.139s-.515 1.14-1.14 1.14zm-63.492-26.202c.208-2.328-.613-4.312-1.838-4.41-1.225-.11-2.388 1.69-2.597 4.018-.196 2.327.625 4.3 1.838 4.41 1.225.11 2.376-1.69 2.597-4.018" class="cls-2"/>
        <path d="m151.728 29.706-.036.54 5.096.318.037-.54c-1.568-.208-1.715-.318-1.618-1.972l.478-7.68c.098-1.63.257-1.74 1.85-1.764l.037-.54-5.096-.306-.037.54c1.568.208 1.715.342 1.617 1.972l-.466 7.68c-.098 1.63-.257 1.74-1.85 1.764zm21.156-2.217c-1.164-.012-1.261.074-1.445 1.188l-.257 1.617c-.11.662-.184 1.274-.16 1.801l-.33.025c-1.176.098-2.646.208-4.043 0-4.177-.674-6.554-3.724-5.941-7.485.71-4.41 4.594-5.978 8.318-5.378 1.335.22 2.535.723 3.234 1.005.122.049.232.098.318.134a87 87 0 0 0-.171 3.014l-.552.024c-.085-2.388-1.42-3.246-3.221-3.54-2.904-.465-5.378 1.31-5.942 4.827-.44 2.731.662 6.186 4.325 6.774.649.11 1.261.061 1.715-.074.416-.147.673-.343.808-1.139l.257-1.617c.22-1.372.11-1.507-1.727-1.96l.086-.514 4.826.784-.085.514zm15.938-1.225c.318-.784.833-.894 1.886-.637l.16-.515-4.35-1.31-.159.514c1.25.453 1.617.833 1.458 1.69-.098.527-.282 1.397-.796 3.1l-1.372 4.532h-.061L180.7 22.05l-2.732-.82-.16.514c.846.33 1.201.6 1.434 1.176.196.539.208.624-.196 1.972l-1.225 4.055c-.514 1.69-.833 2.56-1.066 3.111-.367.87-.894.98-1.984.71l-.16.515 4.362 1.323.159-.514c-1.225-.454-1.58-.797-1.397-1.764.11-.552.319-1.446.833-3.149l1.397-4.618h.037l4.924 12.03.576.171 2.242-7.423c.514-1.715.808-2.536 1.04-3.063z" class="cls-1"/>
        <path d="M211.03 49.625c2.94 1.935 6.763 1.42 9.054-2.046 2.119-3.21 1.065-6.958-1.666-8.759-3.37-2.23-7.167-.882-9.078 2.01-2.033 3.086-1.212 6.872 1.69 8.795m.711-.355c-2.266-1.495-2.462-4.79-.478-7.804 1.985-3.001 4.643-3.466 6.432-2.278 2.107 1.384 2.682 4.36.453 7.742-2.034 3.087-4.63 3.516-6.407 2.34" class="cls-2"/>
        <path d="M236.572 54.218c-.919-.698-1.433-.784-2.021-.257-.38.355-.956.956-2.12 2.291l-1.053 1.2c-1.494 1.715-2.83 2.72-4.434 2.867-1.274.11-2.512-.429-3.467-1.262-.845-.735-1.507-1.666-1.715-2.72-.294-1.42.257-2.866 1.727-4.569l3.16-3.626c1.14-1.31 1.079-1.47.013-2.56l.355-.404 3.76 3.27-.354.405c-1.213-.931-1.397-.943-2.536.367l-2.879 3.308c-2.033 2.34-2.266 4.483-.465 6.051 2.094 1.826 4.263.65 6.345-1.751l.956-1.103c1.163-1.335 1.653-1.984 1.984-2.487.404-.637.257-1.078-.698-2.033l.355-.404 3.455 3.013-.356.404zm9.69 12.385c.686-.502 1.176-.318 1.935.453l.404-.355-3-3.405-.405.355c.82 1.041.931 1.556.343 2.205-.368.404-.98 1.041-2.315 2.205l-3.553 3.124-.037-.05 1.96-12.396-1.886-2.144-.404.355c.539.735.698 1.152.6 1.752-.123.564-.147.65-1.2 1.568l-3.186 2.793c-1.335 1.164-2.058 1.74-2.548 2.082-.771.552-1.274.356-2.058-.44l-.404.355 3.014 3.43.404-.356c-.809-1.029-.931-1.519-.257-2.241.38-.417 1.041-1.066 2.364-2.23l3.626-3.185.024.025-2.156 12.813.392.453 5.831-5.12c1.348-1.176 2.022-1.727 2.5-2.046z" class="cls-1"/>
        <path d="M254.298 74.786c1.347 2.034 1.935 3.822 1.654 5.44-.246 1.298-1.042 2.633-2.548 3.638-1.924 1.273-3.847 1.482-5.586.87-1.728-.589-3.185-1.912-4.496-3.884l-2.524-3.797.429-.282c1.017 1.31 1.188 1.384 2.56.478l6.432-4.263c1.384-.92 1.36-1.09.637-2.39l.465-.305 2.989 4.508zm-9.482 3.761c-1.212.808-1.176 1.543-.392 2.707 1.985 3.002 5.157 2.891 7.718 1.189 1.653-1.09 2.67-2.659 2.572-4.435-.012-1.029-.44-2.082-1.151-3.16-.441-.674-.797-1.042-1.017-1.127-.22-.086-.429-.013-1.053.404l-6.664 4.422zm8.012 17.64-.478.245 2.107 4.226.478-.245c-.453-1.176-.417-1.47.796-2.756 1.592-1.678 3.283-3.442 4.937-5.17a482 482 0 0 0 2.633-2.756l-.416-.453-10.817.931c-1.813.147-2.033-.037-2.731-1.041l-.478.245 1.862 3.736.477-.245c-.526-1.348-.428-1.593.846-1.752a46 46 0 0 1 2.486-.33h.11l1.826 3.65c-.22.233-.441.466-.662.686a74 74 0 0 1-1.53 1.58c-.564.564-.773.478-1.459-.539zm7.877-6.076v.037l-3.626 3.7-1.58-3.173a849 849 0 0 1 5.206-.564" class="cls-2"/>
        <path d="M267.356 108.168c.797-.515 1.189-.846 1.397-1.164.33-.453.343-.796-.147-2.156l-.466-1.286-8.893 3.246c-1.434.526-1.556.735-1.042 2.487l-.502.183-1.898-5.194.502-.184c.71 1.605.943 1.691 2.376 1.164l8.894-3.246-.404-1.127c-.552-1.507-.833-1.813-1.323-1.886-.392-.11-.944-.062-1.826 0l-.196-.527a94 94 0 0 0 3.332-.968l.135.368c-.318.404-.27.649-.086 1.163l2.61 7.142c.183.49.343.588.796.76l.135.38c-.833.306-2.12.881-3.136 1.347l-.245-.502zm-7.509 6.406-.527.135 1.299 4.937.526-.135c-.293-1.556-.232-1.727 1.36-2.144l7.448-1.96c1.58-.416 1.727-.294 2.242 1.2l.527-.134-1.299-4.937-.527.135c.294 1.556.22 1.74-1.36 2.156l-7.447 1.96c-1.58.416-1.74.294-2.242-1.2z" class="cls-1"/>
        <path d="M269.72 134.052c-4.103.649-7.068-1.838-7.607-5.317-.539-3.442 1.715-6.602 5.366-7.166 3.418-.539 6.97 1.36 7.595 5.353.502 3.234-1.544 6.53-5.353 7.13m-1.42-10.633c-3.578.563-5.868 2.927-5.452 5.61.331 2.107 2.401 3.737 6.052 3.16 4.005-.624 5.818-3.05 5.426-5.548-.33-2.132-2.462-3.786-6.014-3.222z" class="cls-2"/>
        <path d="M274.78 149.021c.845.05 1.115.502 1.212 1.58h.54l-.16-4.557-.539.025c-.024 1.335-.257 1.8-1.127 1.923-.539.074-1.42.184-3.185.245l-4.728.172v-.062l9.359-8.366-.098-2.842-.54.024c-.048.907-.183 1.335-.648 1.74-.454.367-.527.404-1.924.453l-4.226.147c-1.776.061-2.695.037-3.295 0-.944-.061-1.213-.539-1.311-1.654l-.539.025.16 4.557.538-.025c.025-1.31.245-1.764 1.225-1.886.551-.074 1.482-.172 3.246-.233l4.827-.172v.037l-9.788 8.55.025.601 7.754-.282c1.788-.061 2.658-.061 3.234 0zM68.649 123.982c-2.524-6.737-13.72-14.773-13.72-14.773.392-.245 8.159-5.415 10.523-9.188 6.798 2.953 12.74 12.067 13.928 14.59-2.585.882-9.053 7.264-10.731 9.371m159.74-33.846s-7.338 5.5-10.327 13.266c-3.92-2.621-6.064-3.54-9.346-4.385 1.518-4.545 4.912-13.218 7.84-15.607 5.046.796 11.368 6.333 11.809 6.726zm-83.361-3.859c3.074.318 10.057-1.372 12.262-2.5-.674 3.063 2.095 13.525 3.54 17.335-1.764-.637-8.085 1.016-12.25 2.499.588-7.853-3.552-17.334-3.552-17.334m25.945 34.3c-1.004 6.125-3.172 12.213-7.325 16.06 3.062-5.917 3.957-12.74 4.349-17.224-2.45-.845-4.9-1.409-6.701-1.384 3.65-5.476 4.753-16.795 5.39-23.349.049-.453.086-.882.122-1.298 5.599 3.908 18.792 6.578 18.792 6.578-5.047 4.692-8.845 15.52-9.813 23.14-1.163-.796-2.878-1.715-4.814-2.536zm5.917-26.301c2.658-5.341 8.244-20.139 7.705-24.696 3.05 1.972 12.949 5.476 17.469 5.451 0 0-7.411 13.194-7.718 24.696-5.843-2.78-14.785-6.113-17.456-5.451m34.606 35.023c7.228-4.63 16.342-13.683 18.645-21.046 0 0 9.053 12.042 15.692 15.815-.392.245-.82.49-1.274.76-6.309 3.797-17.199 10.35-20.948 16.66-1.886-4.129-8.428-10.082-12.115-12.19m13.451 37.118c.735-3.074-3.148-13.315-6.382-20.004 13.217-.429 28.297-9.028 28.297-9.028.012 5.194 4.104 16.525 6.382 20.016-5.23-.588-22.197 5.93-28.297 9.029zm-39.139-44.602c8.134-4.361 16.476-19.98 16.476-19.98.38.453 8.269 9.47 13.488 11.834-2.597 9.138-13.181 18.277-16.207 20.212-.588-1.2-2.695-3.368-4.778-5.243-2.83 2.683-5.267 6.346-7.227 13.488-.453-6.064 1.96-11.479 5.218-15.154-2.952-2.499-5.426-4.25-6.958-5.17zm-85.101-29.902s-7.276-10.523-13.475-12.973c1.985-1.519 8.024-7.423 8.882-9.812 2.327 1.139 10.694 6.823 13.303 13.169-3.552 2.131-8.477 9.26-8.698 9.616zm72.508-6.848c-5.843-.845-8.759-.735-12.924.086-.747-5.954-1.605-17.616.429-21.903 6.199-1.85 16.489 1.066 17.003 1.225 0 0-5.317 10.192-4.508 20.592m-65.195 37.963c-4.324.257-13.021 2.72-16.623 5.647-.551-7.485-7.509-18.4-11.552-24.745-.294-.465-.575-.894-.833-1.31 7.78-.417 21.536-7.314 21.536-7.314-1.237 7.779 2.964 20.2 7.46 27.722zm-39.555 21.18c-1.666 2.193-2.205 11.711-1.984 18.191-10.67-4.324-25.725-2.793-25.725-2.793 1.825-4.14 2.572-14.614 1.984-18.191 3.97 2.315 19.772 3.111 25.725 2.793m59.303-44.32C122.83 88.102 111.34 79.98 111.34 79.98c.478-.453 10.045-9.395 17.836-10.853 4.606 3.528 10.205 16.697 12.74 23.606-2.732.784-3.626.943-6.015 2.192 1.213 1.911 1.348 5.28.711 7.828-.49-2.474-2.695-5.341-3.675-6.162-1.519.895-3.21 1.911-5.145 3.296zm26.337-24.219c-5.194-.33-8.759-.036-15.717 1.801-.624-11.956-8.685-22.773-8.685-22.773.6-.245 12.642-5.083 20.458-3.895 3.136 4.581 3.92 17.983 3.944 24.867m-49.735 26.044s9.04-4.006 12.41-7.693c.048.159.097.318.159.477.048.147.098.307.147.466 1.506 4.606 4.079 12.52 7.558 15.852-2.916.588-7.693 3.895-9.592 5.94-1.899-5.303-6.345-12.47-10.694-15.03z" class="cls-1"/>
        <path d="M0 147C0 65.807 65.82 0 147 0s147 65.807 147 147-65.807 147-147 147C65.82 294 0 228.193 0 147m4.043 0c0 78.951 64.006 142.957 142.957 142.957S289.958 225.951 289.958 147 225.964 4.042 147 4.042 4.043 68.05 4.043 147" class="cls-2"/>
        <path d="M166.367 254.567c0 2.083-.392 3.896-1.176 5.427s-1.8 2.78-3.05 3.76a13 13 0 0 1-4.263 2.194c-1.58.477-3.21.722-4.888.722h-10.155v-1.225c.33 0 .772-.024 1.298-.086q.81-.11 1.066-.22c.343-.147.588-.367.747-.662a2.2 2.2 0 0 0 .245-1.065v-17.677a2.6 2.6 0 0 0-.208-1.053c-.122-.307-.392-.552-.772-.735a4.5 4.5 0 0 0-1.151-.38 9 9 0 0 0-1.066-.16v-1.224h10.707c1.47 0 2.927.232 4.348.686 1.434.453 2.671 1.053 3.724 1.825 1.446 1.029 2.573 2.364 3.381 4.018.821 1.654 1.225 3.614 1.225 5.855zm-4.226-.012c0-1.642-.22-3.136-.661-4.459q-.662-2.003-1.911-3.491a8.4 8.4 0 0 0-2.94-2.23c-1.152-.539-2.438-.808-3.847-.808-.465 0-1.004 0-1.605.036-.588 0-1.029.025-1.31.037v18.84c0 1.054.306 1.777.918 2.181s1.544.6 2.818.6c1.458 0 2.744-.257 3.834-.771 1.09-.515 1.985-1.238 2.658-2.156a9.6 9.6 0 0 0 1.556-3.345c.33-1.274.502-2.756.502-4.422zm-25.468 12.115h-7.803v-1.139c.515-.061.956-.11 1.31-.172.368-.06.552-.208.552-.453 0-.098-.061-.27-.171-.478-.11-.22-.233-.416-.343-.6-.294-.453-.686-1.053-1.189-1.8a99 99 0 0 0-1.825-2.708 45 45 0 0 0-1.654 2.193c-.502.698-1.041 1.445-1.592 2.242-.086.11-.172.257-.258.429s-.122.306-.122.416c0 .257.16.466.478.637.33.16.833.27 1.482.33v1.103h-6.309v-1.066c.784-.232 1.409-.502 1.887-.833a6.6 6.6 0 0 0 1.323-1.225c.355-.465.857-1.09 1.482-1.898.65-.809 1.47-1.899 2.487-3.283-.588-.845-1.311-1.862-2.156-3.075-.845-1.225-1.531-2.23-2.095-3.038a3.9 3.9 0 0 0-1.041-1.053c-.38-.27-.919-.417-1.63-.417v-1.14h7.412v1.14c-.368 0-.735.024-1.09.073-.356.05-.54.147-.54.307 0 .098.037.22.098.343s.16.27.258.416c.257.392.649.992 1.176 1.813.539.821 1.127 1.679 1.74 2.585.404-.551.869-1.2 1.396-1.936a49 49 0 0 0 1.482-2.106c.049-.074.098-.184.135-.294a1 1 0 0 0 .073-.368c0-.245-.196-.429-.6-.576a5.4 5.4 0 0 0-1.127-.306v-1.102h6.284v1.065c-.882.233-1.58.503-2.07.833-.49.307-.919.674-1.262 1.09-.38.466-.833 1.054-1.36 1.74-.514.686-1.249 1.654-2.192 2.903 1.053 1.47 1.899 2.683 2.56 3.626.662.944 1.323 1.911 1.985 2.916q.496.753 1.102 1.213c.416.281.98.453 1.69.502v1.139zm-22.368 0h-11.037v-1.225c.306-.024.759-.061 1.347-.098.588-.049 1.005-.11 1.237-.208.38-.147.662-.355.833-.6.172-.27.258-.625.258-1.09v-17.75c0-.405-.062-.736-.197-1.005-.122-.27-.428-.503-.894-.686a8 8 0 0 0-1.31-.38 8.4 8.4 0 0 0-1.274-.22v-1.225h11.037v1.225c-.355 0-.784.06-1.274.134s-.931.16-1.299.27c-.44.134-.735.367-.882.673s-.22.662-.22 1.042v17.726c0 .38.086.722.245 1.016.171.282.465.515.857.686.245.086.637.196 1.176.306.552.098 1.017.16 1.397.172zm56.999-24.5v1.225c.306.025.723.098 1.25.209.526.11.955.245 1.261.392.404.183.662.428.796.722.123.282.196.625.196 1.005V263.4c0 .416-.085.771-.245 1.065q-.22.423-.735.662c-.171.086-.55.147-1.127.208-.575.05-1.04.074-1.384.098v1.225h10.62v-1.225c-.293 0-.734-.073-1.31-.196-.576-.11-.955-.208-1.127-.294-.38-.184-.65-.429-.796-.723a2.26 2.26 0 0 1-.22-1.016v-8.44h1.629c2.303 0 2.842.281 3.197.575.233.196.44.515.637.956.208.44.343.796.367.943h1.311v-6.358h-1.31a3.7 3.7 0 0 1-.38 1.188q-.276.552-.625.809c-.33.257-.894.49-3.197.49h-1.63v-9.788h6.542c2.303 0 2.842.282 3.197.576.233.196.441.514.637.955.208.441.368.944.368.944h1.31v-3.896h-19.22zM51.597 225.804c-.343 0-.674-.147-.907-.429-15.361-18.865-24.781-41.588-27.219-65.733a1.167 1.167 0 0 1 1.041-1.274 1.16 1.16 0 0 1 1.274 1.041c2.389 23.692 11.625 45.999 26.705 64.497a1.167 1.167 0 0 1-.171 1.641 1.2 1.2 0 0 1-.735.257zm190.806 0c-.257 0-.515-.086-.735-.257a1.167 1.167 0 0 1-.172-1.641c15.08-18.51 24.317-40.805 26.705-64.497a1.16 1.16 0 0 1 1.274-1.041 1.167 1.167 0 0 1 1.042 1.274c-2.438 24.145-11.846 46.88-27.22 65.733a1.17 1.17 0 0 1-.906.43zM201.035 29.4l-.282.564c.135.085.306.208.514.38.221.17.38.33.49.465.147.171.209.343.196.514 0 .16-.06.331-.147.503l-4.042 8.06c-.098.184-.208.33-.355.429-.135.098-.294.135-.49.135-.098 0-.282-.062-.564-.16-.27-.11-.49-.196-.649-.27l-.282.564 4.839 2.426.282-.564a4.5 4.5 0 0 1-.551-.392 3.4 3.4 0 0 1-.441-.392.82.82 0 0 1-.196-.514c0-.172.049-.343.134-.515l1.936-3.846.747.367c1.053.527 1.237.784 1.323.992q.092.22.073.588c0 .245-.024.441-.049.515l.6.306 1.458-2.903-.6-.306c-.122.183-.27.33-.44.453-.172.122-.32.196-.466.22-.209.037-.515.025-1.568-.502l-.748-.367L204 31.678l2.99 1.495c1.053.527 1.236.784 1.322.992q.092.22.074.588c0 .245-.05.515-.05.515l.6.306.895-1.776-8.77-4.398z" class="cls-1"/>
    </g>
</svg>
