<svg xmlns="http://www.w3.org/2000/svg" width="496" height="191" fill="none" viewBox="0 0 496 191">
    <path fill="#ececec" d="M0 0h496v191H0z"/>
    <g fill="#fff" clip-path="url(#a)">
        <path d="M248 143.5c-26.46 0-48-21.54-48-48s21.54-48 48-48 48 21.54 48 48-21.54 48-48 48m0-94.74c-25.77 0-46.74 20.97-46.74 46.74s20.97 46.74 46.74 46.74 46.74-20.97 46.74-46.74S273.77 48.76 248 48.76"/>
        <path fill-rule="evenodd" d="M272.66 122.965h-49.335a.37.37 0 0 1-.375-.375c0-.21.165-.375.375-.375h18.585c.93-.495 1.635-1.035 1.74-1.56.3-1.47.885-4.695 0-7.77-.885-2.31-3.09-3.885-5.655-4.98-.765.105-1.815.3-2.55 1.065.645.555 1.245.945 1.305.99 0 0-2.67 1.875-3.27 3.465-.39-.495-1.905-2.025-2.52-2.235.285-.6 1.71-2.73 3.315-3.42.165.255.42.54.705.81a5 5 0 0 1 1.86-1.125c-2.73-.975-5.655-1.455-7.71-1.695-.045.705-.045 1.5 0 2.535-4.14-.69-8.4 1.095-8.4 1.095-.045-.21-.855-4.44.105-6.855 1.785-.66 6.42.075 8.79.585a13 13 0 0 0-.42 1.86c2.01-.315 3.84-.36 5.505-.24-.615-.87-1.755-2.025-3.705-2.925-1.89-.87-3.27-1.98-4.17-2.835-.855.36-1.65.795-2.145 1.155-.405-2.52-1.8-6.09-3.54-7.59 0 0 4.365-1.05 6.18-2.415.015.135.045.285.06.435.285 2.175.795 5.925 2.07 7.695-.645 0-1.335.195-2.19.54 1.17.99 2.595 1.875 4.71 2.43a5.6 5.6 0 0 1-.015-2.145c-.33 0-.57.03-.915.09-.12-1.035-.225-3.06.135-3.81 1.08-.3 2.865.225 2.955.255 0 0-.945 1.755-.84 3.57-.465-.075-.645-.105-.975-.12-.06 1.05.03 1.695.315 2.31 2.355.495 3.9 2.46 4.65 3.675 1.47.27 2.76.66 3.87 1.065-.015-.48-.12-1.365-.465-2.025a7.5 7.5 0 0 0-.99.36c-.315-1.785-1.65-3.27-1.65-3.27.09-.06 1.695-.99 2.805-.945.525.63.885 2.64 1.02 3.66-.39.03-.435 0-.795.09.36.495.54 1.605.615 2.325.795.3 1.485.6 2.1.855l.24.105c.54-4.275-1.56-7.755-3-9.6-.975.735-1.92 1.515-2.31 1.92-.765-2.985-5.175-6.9-5.175-6.9.18-.09 3.72-1.935 4.89-3.435 2.76 1.56 4.875 5.7 5.265 6.84-.48.105-1.305.6-2.145 1.2.645.48 1.41 1.155 2.235 2.1.39.435.72.945 1.035 1.5.42-.375.975-.945 1.38-1.71-.6-.21-1.155-.375-1.44-.435 1.245-1.365 1.785-4.875 1.785-4.875.105.06 2.205 1.245 3.345 1.35.12 1.905-1.275 4.335-1.725 4.905-.225-.225-.795-.495-1.425-.735-.24.78-.69 1.635-1.425 2.475.69 1.47 1.245 3.165 1.785 4.83.15.45.285.9.435 1.335 5.295-4.41 3.765-12.615 2.67-16.41-.72.465-1.47 1.065-2.43 1.92-2.265-4.095-6.795-6.6-6.795-6.6.15-.18 3.285-3.825 6.06-4.68 1.815 1.095 4.395 5.685 5.595 8.1-.735.3-1.35.6-1.965.96 1.29 1.815 2.205 4.095 2.715 6.435.69-.675 1.53-1.29 2.31-1.8-.285-.225-.555-.42-.735-.48.285-.6 1.71-2.73 3.33-3.42.555.9 2.37 2.13 2.46 2.19 0 0-2.67 1.875-3.27 3.465-.21-.27-.75-.84-1.305-1.335-1.215 1.485-1.98 3.405-2.355 4.5.135 1.95 0 3.825-.435 5.4 1.23-.765 2.925-1.245 4.8-1.5.195-1.8 1.695-3.165 2.985-4.02-.525-.63-1.05-1.14-1.725-1.695 1.665-1.74 5.1-4.965 6.96-5.415 2.145 1.47 3.84 5.43 3.915 5.625 0 0-4.53.915-7.575 3.81-.465-.78-.87-1.395-1.245-1.905-1.155 1.395-1.515 2.805-1.62 3.435 2.25-.165 4.62-.06 6.705.195.195-1.035.3-2.01.195-2.505 1.185-.12 5.85.045 8.415 1.89-.87 1.695-1.05 5.685-1.05 5.88 0 0-5.415-2.325-8.445-1.77.195-.51.495-1.62.735-2.775-4.275-.075-6.975.51-9.105 1.605 1.425.12 2.355.315 2.955.51.21-.45.36-.855.375-1.095.66.105 3.105.885 4.215 2.235-.705.78-1.38 2.88-1.41 2.985 0 0-2.55-2.04-4.23-2.175.21-.285.555-.855.885-1.545-1.02-.27-2.505-.48-3.885-.27a20 20 0 0 0-2.25 1.725c-.9.78-1.575 1.83-2.04 2.97.345.51.57 1.245.57 2.055 0 1.32-.57 2.43-1.335 2.715.105 1.83.66 3.48 1.635 4.44.195.18.435.36.72.525h19.035c.21 0 .375.165.375.375s-.165.375-.375.375zm-21.15-8.73c.075-.78-.21-1.44-.615-1.47-.405-.045-.795.57-.87 1.335-.06.78.21 1.44.615 1.47.405.045.795-.555.87-1.335" clip-rule="evenodd"/>
        <path d="M221.9 89.05c-.84-2.25-4.575-4.92-4.575-4.92.135-.075 2.715-1.8 3.51-3.06 2.265.975 4.245 4.02 4.635 4.86-.855.285-3.015 2.415-3.57 3.12m53.22-11.265s-2.445 1.83-3.435 4.425c-1.305-.87-2.025-1.185-3.12-1.455.51-1.515 1.635-4.41 2.61-5.205 1.68.27 3.78 2.115 3.93 2.235zm-27.78-1.29c1.02.105 3.345-.465 4.08-.84-.225 1.02.705 4.5 1.185 5.775-.585-.21-2.685.345-4.08.84.195-2.61-1.185-5.775-1.185-5.775m8.64 11.43c-.33 2.04-1.05 4.065-2.445 5.355 1.02-1.965 1.32-4.245 1.44-5.73-.81-.285-1.635-.465-2.235-.465 1.215-1.83 1.575-5.595 1.785-7.785.015-.15.03-.3.045-.435 1.86 1.305 6.255 2.19 6.255 2.19-1.68 1.56-2.94 5.175-3.27 7.71-.39-.27-.96-.57-1.605-.84zm1.98-8.76c.885-1.77 2.745-6.705 2.565-8.22 1.02.66 4.305 1.83 5.82 1.815 0 0-2.46 4.395-2.565 8.235-1.95-.93-4.92-2.04-5.82-1.815zm11.535 11.67c2.4-1.545 5.445-4.56 6.21-7.02 0 0 3.015 4.02 5.22 5.265-.135.075-.27.165-.42.255-2.1 1.26-5.73 3.45-6.975 5.55-.63-1.38-2.805-3.36-4.035-4.065zm4.47 12.36c.24-1.02-1.05-4.44-2.13-6.66 4.41-.15 9.42-3.015 9.42-3.015 0 1.725 1.365 5.505 2.13 6.675-1.74-.195-7.395 1.98-9.42 3.015zM260.93 88.33c2.715-1.455 5.49-6.66 5.49-6.66.12.15 2.76 3.15 4.485 3.945-.87 3.045-4.395 6.09-5.4 6.735-.195-.405-.9-1.125-1.59-1.74-.945.9-1.755 2.115-2.415 4.5-.15-2.025.66-3.825 1.74-5.055-.975-.825-1.815-1.41-2.325-1.725zm-28.35-9.96s-2.43-3.51-4.485-4.32c.66-.51 2.67-2.475 2.955-3.27.78.375 3.555 2.28 4.44 4.38-1.185.705-2.82 3.09-2.895 3.21zm24.15-2.28c-1.95-.285-2.925-.24-4.305.03-.255-1.98-.54-5.865.135-7.29 2.07-.615 5.49.36 5.67.405 0 0-1.77 3.39-1.5 6.855m-21.72 12.645c-1.44.09-4.335.9-5.535 1.875-.18-2.49-2.505-6.135-3.84-8.25-.09-.15-.195-.3-.27-.435 2.595-.135 7.17-2.445 7.17-2.445-.42 2.595.99 6.735 2.49 9.24zM221.84 95.8c-.555.735-.735 3.9-.66 6.06-3.555-1.44-8.565-.93-8.565-.93.615-1.38.855-4.875.66-6.06 1.32.765 6.585 1.035 8.565.93m19.755-14.775c-1.65-3.93-5.475-6.63-5.475-6.63.15-.15 3.345-3.135 5.94-3.615 1.53 1.17 3.405 5.565 4.245 7.86-.9.255-1.215.315-2.01.735.405.645.45 1.755.24 2.61-.165-.825-.9-1.785-1.23-2.055-.51.3-1.065.63-1.71 1.095m8.775-8.07c-1.725-.105-2.925 0-5.235.6-.21-3.99-2.895-7.59-2.895-7.59.195-.075 4.215-1.695 6.825-1.29 1.05 1.53 1.305 5.985 1.305 8.28m-16.575 8.685s3.015-1.335 4.14-2.565c.015.045.03.105.06.165.015.045.03.105.045.15.495 1.53 1.365 4.17 2.52 5.28-.975.195-2.565 1.305-3.195 1.98-.63-1.77-2.115-4.155-3.57-5.01m39.3 42.33H223.01a.634.634 0 0 1-.63-.63c0-.345.285-.63.63-.63h50.1c.345 0 .63.285.63.63s-.285.63-.63.63z"/>
    </g>
    <defs>
        <clipPath id="a">
            <path fill="#fff" d="M200 47.5h96v96h-96z"/>
        </clipPath>
    </defs>
</svg>
